<?xml version="1.0" encoding="UTF-8"?>
<svg width="24" height="24" viewBox="0 0 24 24" fill="none" xmlns="http://www.w3.org/2000/svg">
    <path d="M12 2C6.48 2 2 6.48 2 12C2 17.52 6.48 22 12 22C17.52 22 22 17.52 22 12C22 6.48 17.52 2 12 2ZM12 20C7.59 20 4 16.41 4 12C4 7.59 7.59 4 12 4C16.41 4 20 7.59 20 12C20 16.41 16.41 20 12 20ZM12.31 11.14C10.54 10.57 9.47 10.03 9.47 9.03C9.47 8.08 10.16 7.5 11.45 7.5C12.75 7.5 13.13 8.11 13.16 9.25H14.64C14.61 7.77 13.86 6.5 11.45 6.5C9.28 6.5 7.97 7.5 7.97 9.05C7.97 10.4 8.9 11.04 10.34 11.55C12.13 12.17 12.77 12.68 12.77 13.7C12.77 14.5 12.14 15.1 10.96 15.1C9.66 15.1 9.12 14.43 9.04 13.25H7.55C7.63 14.93 8.87 15.9 10.96 15.9C13.23 15.9 14.47 14.85 14.47 13.2C14.47 11.64 13.09 10.71 12.31 10.14Z" fill="currentColor"/>
</svg> 