<?xml version="1.0" encoding="UTF-8"?>
<svg width="24" height="24" viewBox="0 0 24 24" fill="none" xmlns="http://www.w3.org/2000/svg">
    <path d="M19.14 12.94C19.18 12.64 19.2 12.33 19.2 12C19.2 11.67 19.18 11.36 19.14 11.06L21.16 9.48C21.34 9.34 21.39 9.07 21.28 8.87L19.36 5.5C19.24 5.27 18.98 5.17 18.74 5.23L16.37 6.05C15.88 5.66 15.35 5.34 14.76 5.11L14.4 2.56C14.36 2.29 14.16 2.09 13.89 2.05L10.11 2.05C9.84 2.09 9.64 2.29 9.6 2.56L9.24 5.11C8.65 5.34 8.12 5.66 7.63 6.05L5.26 5.23C5.02 5.17 4.76 5.27 4.64 5.5L2.72 8.87C2.61 9.07 2.66 9.34 2.84 9.48L4.86 11.06C4.82 11.36 4.8 11.69 4.8 12C4.8 12.31 4.82 12.64 4.86 12.94L2.84 14.52C2.66 14.66 2.61 14.93 2.72 15.13L4.64 18.5C4.76 18.73 5.02 18.83 5.26 18.77L7.63 17.95C8.12 18.34 8.65 18.66 9.24 18.89L9.6 21.44C9.64 21.71 9.84 21.91 10.11 21.95H13.89C14.16 21.91 14.36 21.71 14.4 21.44L14.76 18.89C15.35 18.66 15.88 18.34 16.37 17.95L18.74 18.77C18.98 18.83 19.24 18.73 19.36 18.5L21.28 15.13C21.39 14.93 21.34 14.66 21.16 14.52L19.14 12.94ZM12 15.6C10.02 15.6 8.4 13.98 8.4 12C8.4 10.02 10.02 8.4 12 8.4C13.98 8.4 15.6 10.02 15.6 12C15.6 13.98 13.98 15.6 12 15.6Z" fill="currentColor"/>
</svg> 