<?xml version="1.0" encoding="UTF-8"?>
<svg width="24" height="24" viewBox="0 0 24 24" fill="none" xmlns="http://www.w3.org/2000/svg">
    <path d="M12 7C9.24 7 7 9.24 7 12C7 14.76 9.24 17 12 17C14.76 17 17 14.76 17 12C17 9.24 14.76 7 12 7ZM12 2L14.39 5.42C13.65 5.15 12.84 5 12 5C11.16 5 10.35 5.15 9.61 5.42L12 2ZM3.34 7L7.5 6.65C6.9 7.16 6.36 7.78 5.94 8.5C5.52 9.22 5.25 10 5.11 10.79L3.34 7ZM3.36 17L5.12 13.23C5.26 14 5.53 14.78 5.95 15.5C6.37 16.22 6.91 16.83 7.51 17.35L3.36 17ZM12 22L9.59 18.56C10.33 18.83 11.14 19 12 19C12.82 19 13.63 18.83 14.37 18.56L12 22ZM18.88 16.24C19.27 15.56 19.56 14.8 19.73 14H21.94C21.77 15.76 20.67 17.24 19.12 18.24L18.88 16.24ZM18.88 7.76L19.12 5.76C20.67 6.76 21.77 8.24 21.94 10H19.73C19.56 9.2 19.27 8.44 18.88 7.76Z" fill="currentColor"/>
</svg> 